<svg width="27" height="18" viewBox="0 0 27 18" fill="none" xmlns="http://www.w3.org/2000/svg">
<path d="M25.9662 2.62373C26.3968 2.58769 22.6277 2.12994 19.4446 2.94332C19.0704 3.03893 18.6909 2.76519 18.6909 2.37898V2.37898C18.6909 2.32591 18.6836 2.27295 18.6679 2.22228C18.456 1.5417 18.1562 1.28098 17.4963 1.04975C17.3984 1.01543 17.2938 1 17.19 1C12.1973 1 8.85083 1 3.8604 1C3.74994 1 3.6385 1.01739 3.53527 1.05669C2.95597 1.27725 2.66633 1.53339 2.41545 2.13124C2.36937 2.24103 2.34928 2.35995 2.34928 2.47901V3.95364C2.34928 4.56453 1.80529 5.03635 1.20263 4.93642C1.06153 4.91302 0.975636 4.89694 1.00614 4.89694C1.10865 4.89694 5.20734 7.95728 7.82508 10.5754C8.21089 10.9612 8.83303 10.9923 9.24442 10.6338C12.4501 7.84069 14.6228 6.31051 18.6909 4.24745C21.9735 2.98026 25.501 2.66266 25.9662 2.62373ZM18.6909 15.5053V6.55494C18.6909 6.4652 18.733 6.38069 18.8047 6.32675L18.9725 6.20056C19.2186 6.01545 18.9961 5.63172 18.7132 5.75332V5.75332C18.6983 5.75971 18.6838 5.76766 18.6704 5.7767C14.492 8.58985 12.4095 10.5336 9.17903 13.7505C8.80134 14.1266 8.19508 14.1413 7.80034 13.7831C5.72571 11.9007 4.35008 10.6799 1.75715 9.16491C1.72227 9.14453 1.67771 9.16927 1.67771 9.20967V9.20967C1.67771 9.22085 1.68139 9.23186 1.68801 9.24087C1.90811 9.53996 2.04761 9.73574 2.19393 9.95868C2.29716 10.116 2.34928 10.3009 2.34928 10.489V15.1904C2.34928 15.2558 2.35547 15.3214 2.36925 15.3854C2.51146 16.0455 2.71795 16.4007 3.44662 16.7422C3.56304 16.7968 3.69094 16.822 3.8195 16.8237L17.0165 16.9986C17.0879 16.9995 17.1592 16.993 17.229 16.978C18.3264 16.7417 18.6944 16.4341 18.6909 15.5053Z" stroke="black"/>
</svg>
