<?xml version="1.0" standalone="no"?>
<!DOCTYPE svg PUBLIC "-//W3C//DTD SVG 20010904//EN"
 "http://www.w3.org/TR/2001/REC-SVG-20010904/DTD/svg10.dtd">
<svg version="1.0" xmlns="http://www.w3.org/2000/svg"
 width="100%" height="100%" viewBox="0 0 20 13.23"
 preserveAspectRatio="xMidYMid meet">

<g transform="translate(0.000000,513.000000) scale(0.100000,-0.100000)"
fill="currentColor" stroke="none">
<path d="M1105 5120 c-121 -4 -240 -13 -265 -20 -139 -37 -308 -175 -368 -300
-45 -93 -54 -182 -61 -601 l-6 -366 -130 39 c-163 49 -228 58 -255 33 -54 -48
-15 -93 232 -267 897 -633 1291 -968 1861 -1580 121 -131 221 -238 223 -238 1
0 105 91 231 201 392 346 673 576 1024 836 1254 931 2496 1506 3519 1629 69 8
224 17 345 20 121 3 234 10 251 15 40 12 62 56 44 89 -28 52 -141 74 -440 85
-172 6 -586 -7 -775 -26 -187 -18 -516 -92 -848 -191 -76 -22 -139 -39 -141
-37 -2 2 -11 55 -20 117 -35 253 -115 381 -317 507 l-87 54 -1898 4 c-1045 3
-1998 2 -2119 -3z m4069 -102 c188 -113 266 -241 296 -483 7 -55 19 -115 26
-134 16 -39 7 -40 179 14 181 56 614 162 728 179 186 28 408 39 747 39 339 1
475 -9 528 -37 40 -21 23 -24 -208 -30 -342 -9 -566 -40 -900 -122 -1220 -300
-2622 -1124 -4024 -2363 -109 -97 -201 -176 -205 -176 -3 0 -101 101 -217 225
-511 545 -938 915 -1598 1383 -401 285 -475 342 -446 345 14 2 101 -20 195
-48 93 -27 175 -50 181 -50 8 0 13 113 17 428 6 474 11 523 69 620 58 97 208
210 313 237 75 19 529 23 2324 19 l1925 -4 70 -42z"/>
<path d="M5909 3847 c-595 -311 -1428 -932 -2224 -1658 -254 -232 -351 -325
-880 -845 l-470 -461 -115 109 c-597 568 -1086 948 -1817 1411 l-183 116 -36
-45 -37 -44 132 -139 131 -139 0 -633 c0 -876 12 -1077 71 -1205 34 -74 166
-200 259 -247 l75 -37 560 -11 c765 -14 3583 -7 3685 10 165 26 299 126 411
306 l57 90 7 1470 c6 1410 7 1471 25 1485 10 8 132 105 270 214 139 110 257
210 263 224 9 18 8 30 -4 50 -25 45 -63 41 -180 -21z m127 -14 c-4 -4 -130
-105 -279 -223 l-272 -215 -8 -1479 -9 -1478 -56 -87 c-99 -152 -207 -235
-342 -263 -75 -15 -3126 -23 -3773 -9 l-478 10 -64 36 c-135 75 -229 192 -254
315 -23 110 -30 379 -31 1050 l0 685 -138 144 c-75 80 -130 141 -122 136 73
-43 481 -306 580 -373 489 -335 868 -641 1331 -1077 l216 -203 504 496 c507
499 770 749 1039 988 744 662 1418 1160 2019 1490 101 56 161 80 137 57z"/>
</g>
</svg>
